<svg xmlns="http://www.w3.org/2000/svg" viewBox="0 0 1200 800" width="1200" height="800" role="img">
  <rect width="1200" height="800" fill="#0a2240"/>
  <g stroke="#a9c2e8" fill="none" stroke-width="2" opacity="0.85"><g opacity="0.08" stroke-width="1"><line x1="200" y1="0" x2="200" y2="800"/><line x1="400" y1="0" x2="400" y2="800"/><line x1="600" y1="0" x2="600" y2="800"/><line x1="800" y1="0" x2="800" y2="800"/><line x1="1000" y1="0" x2="1000" y2="800"/><line x1="0" y1="200" x2="1200" y2="200"/><line x1="0" y1="400" x2="1200" y2="400"/><line x1="0" y1="600" x2="1200" y2="600"/></g><path d="M120 300 L600 140 L1080 300 Z" stroke-width="3"/><line x1="110" y1="300" x2="1090" y2="300" stroke-width="3"/><rect x="180" y="300" width="58" height="330" stroke-width="2"/><line x1="209" y1="300" x2="209" y2="630" opacity="0.4" stroke-width="1"/><rect x="325" y="300" width="58" height="330" stroke-width="2"/><line x1="354" y1="300" x2="354" y2="630" opacity="0.4" stroke-width="1"/><rect x="470" y="300" width="58" height="330" stroke-width="2"/><line x1="499" y1="300" x2="499" y2="630" opacity="0.4" stroke-width="1"/><rect x="615" y="300" width="58" height="330" stroke-width="2"/><line x1="644" y1="300" x2="644" y2="630" opacity="0.4" stroke-width="1"/><rect x="760" y="300" width="58" height="330" stroke-width="2"/><line x1="789" y1="300" x2="789" y2="630" opacity="0.4" stroke-width="1"/><rect x="905" y="300" width="58" height="330" stroke-width="2"/><line x1="934" y1="300" x2="934" y2="630" opacity="0.4" stroke-width="1"/><rect x="1050" y="300" width="58" height="330" stroke-width="2"/><line x1="1079" y1="300" x2="1079" y2="630" opacity="0.4" stroke-width="1"/><line x1="90" y1="630" x2="1110" y2="630" stroke-width="3"/><line x1="60" y1="680" x2="1140" y2="680" stroke-width="2" opacity="0.5"/></g>
</svg>
